TITLE ""
FILE "1Q_t_0039-0048.mp3" MP3
  TRACK 01 AUDIO
    TITLE "1Q_t_0039-0048_01"
    INDEX 01 00:00:00
  TRACK 02 AUDIO
    TITLE "1Q_t_0039-0048_02"
    INDEX 01 00:01:04
  TRACK 03 AUDIO
    TITLE "1Q_t_0039-0048_03"
    INDEX 01 00:01:22
  TRACK 04 AUDIO
    TITLE "1Q_t_0039-0048_04"
    INDEX 01 00:03:44
  TRACK 05 AUDIO
    TITLE "1Q_t_0039-0048_05"
    INDEX 01 00:03:58
  TRACK 06 AUDIO
    TITLE "1Q_t_0039-0048_06"
    INDEX 01 00:06:56
  TRACK 07 AUDIO
    TITLE "1Q_t_0039-0048_07"
    INDEX 01 00:07:34
  TRACK 08 AUDIO
    TITLE "1Q_t_0039-0048_08"
    INDEX 01 00:08:41
  TRACK 09 AUDIO
    TITLE "1Q_t_0039-0048_09"
    INDEX 01 00:08:57
  TRACK 10 AUDIO
    TITLE "1Q_t_0039-0048_10"
    INDEX 01 00:10:05
  TRACK 11 AUDIO
    TITLE "1Q_t_0039-0048_11"
    INDEX 01 00:10:22
  TRACK 12 AUDIO
    TITLE "1Q_t_0039-0048_12"
    INDEX 01 00:15:27
  TRACK 13 AUDIO
    TITLE "1Q_t_0039-0048_13"
    INDEX 01 00:16:05
  TRACK 14 AUDIO
    TITLE "1Q_t_0039-0048_14"
    INDEX 01 00:17:19
  TRACK 15 AUDIO
    TITLE "1Q_t_0039-0048_15"
    INDEX 01 00:17:34
  TRACK 16 AUDIO
    TITLE "1Q_t_0039-0048_16"
    INDEX 01 00:18:51
  TRACK 17 AUDIO
    TITLE "1Q_t_0039-0048_17"
    INDEX 01 00:18:67
  TRACK 18 AUDIO
    TITLE "1Q_t_0039-0048_18"
    INDEX 01 00:23:25
  TRACK 19 AUDIO
    TITLE "1Q_t_0039-0048_19"
    INDEX 01 00:24:05
  TRACK 20 AUDIO
    TITLE "1Q_t_0039-0048_20"
    INDEX 01 00:25:16
  TRACK 21 AUDIO
    TITLE "1Q_t_0039-0048_21"
    INDEX 01 00:25:32
  TRACK 22 AUDIO
    TITLE "1Q_t_0039-0048_22"
    INDEX 01 00:27:54
  TRACK 23 AUDIO
    TITLE "1Q_t_0039-0048_23"
    INDEX 01 00:27:72
  TRACK 24 AUDIO
    TITLE "1Q_t_0039-0048_24"
    INDEX 01 00:32:44
  TRACK 25 AUDIO
    TITLE "1Q_t_0039-0048_25"
    INDEX 01 00:33:23
  TRACK 26 AUDIO
    TITLE "1Q_t_0039-0048_26"
    INDEX 01 00:34:43
  TRACK 27 AUDIO
    TITLE "1Q_t_0039-0048_27"
    INDEX 01 00:34:62
  TRACK 28 AUDIO
    TITLE "1Q_t_0039-0048_28"
    INDEX 01 00:37:00
  TRACK 29 AUDIO
    TITLE "1Q_t_0039-0048_29"
    INDEX 01 00:37:15
  TRACK 30 AUDIO
    TITLE "1Q_t_0039-0048_30"
    INDEX 01 00:44:15
  TRACK 31 AUDIO
    TITLE "1Q_t_0039-0048_31"
    INDEX 01 00:44:70
  TRACK 32 AUDIO
    TITLE "1Q_t_0039-0048_32"
    INDEX 01 00:46:06
  TRACK 33 AUDIO
    TITLE "1Q_t_0039-0048_33"
    INDEX 01 00:46:20
  TRACK 34 AUDIO
    TITLE "1Q_t_0039-0048_34"
    INDEX 01 00:48:43
  TRACK 35 AUDIO
    TITLE "1Q_t_0039-0048_35"
    INDEX 01 00:48:56
  TRACK 36 AUDIO
    TITLE "1Q_t_0039-0048_36"
    INDEX 01 00:54:04
  TRACK 37 AUDIO
    TITLE "1Q_t_0039-0048_37"
    INDEX 01 00:54:55
  TRACK 38 AUDIO
    TITLE "1Q_t_0039-0048_38"
    INDEX 01 00:55:70
  TRACK 39 AUDIO
    TITLE "1Q_t_0039-0048_39"
    INDEX 01 00:56:11
  TRACK 40 AUDIO
    TITLE "1Q_t_0039-0048_40"
    INDEX 01 00:58:72
  TRACK 41 AUDIO
    TITLE "1Q_t_0039-0048_41"
    INDEX 01 00:59:15
  TRACK 42 AUDIO
    TITLE "1Q_t_0039-0048_42"
    INDEX 01 01:04:18
  TRACK 43 AUDIO
    TITLE "1Q_t_0039-0048_43"
    INDEX 01 01:04:71
  TRACK 44 AUDIO
    TITLE "1Q_t_0039-0048_44"
    INDEX 01 01:06:05
  TRACK 45 AUDIO
    TITLE "1Q_t_0039-0048_45"
    INDEX 01 01:06:19
  TRACK 46 AUDIO
    TITLE "1Q_t_0039-0048_46"
    INDEX 01 01:10:09
  TRACK 47 AUDIO
    TITLE "1Q_t_0039-0048_47"
    INDEX 01 01:10:27
  TRACK 48 AUDIO
    TITLE "1Q_t_0039-0048_48"
    INDEX 01 01:14:42
  TRACK 49 AUDIO
    TITLE "1Q_t_0039-0048_49"
    INDEX 01 01:15:20
  TRACK 50 AUDIO
    TITLE "1Q_t_0039-0048_50"
    INDEX 01 01:16:43
  TRACK 51 AUDIO
    TITLE "1Q_t_0039-0048_51"
    INDEX 01 01:16:60
  TRACK 52 AUDIO
    TITLE "1Q_t_0039-0048_52"
    INDEX 01 01:19:29
  TRACK 53 AUDIO
    TITLE "1Q_t_0039-0048_53"
    INDEX 01 01:19:45
  TRACK 54 AUDIO
    TITLE "1Q_t_0039-0048_54"
    INDEX 01 01:24:68
  TRACK 55 AUDIO
    TITLE "1Q_t_0039-0048_55"
    INDEX 01 01:25:46
  TRACK 56 AUDIO
    TITLE "1Q_t_0039-0048_56"
    INDEX 01 01:27:11
  TRACK 57 AUDIO
    TITLE "1Q_t_0039-0048_57"
    INDEX 01 01:27:27
  TRACK 58 AUDIO
    TITLE "1Q_t_0039-0048_58"
    INDEX 01 01:28:54
  TRACK 59 AUDIO
    TITLE "1Q_t_0039-0048_59"
    INDEX 01 01:28:70
  TRACK 60 AUDIO
    TITLE "1Q_t_0039-0048_60"
    INDEX 01 01:34:06
